<svg width="55" height="21" viewBox="0 0 55 21" fill="none" xmlns="http://www.w3.org/2000/svg">
<mask id="path-1-inside-1_7644_14924" fill="white">
<path fill-rule="evenodd" clip-rule="evenodd" d="M0 1.27401C0 0.916651 0.289701 0.626953 0.647062 0.626953H54.3529C54.7103 0.626953 55 0.916651 55 1.27401V6.92018C55 7.216 54.7935 7.46587 54.5329 7.60581C53.6824 8.06247 53.0875 9.11178 53.0875 10.3332C53.0875 11.5547 53.6824 12.604 54.5329 13.0607C54.7935 13.2006 55 13.4505 55 13.7463V19.3917C55 19.749 54.7103 20.0387 54.3529 20.0387H0.647059C0.289698 20.0387 0 19.749 0 19.3917V13.752C0 13.4548 0.208368 13.2042 0.47074 13.0646C1.32513 12.6101 1.9235 11.5582 1.9235 10.3332C1.9235 9.10826 1.32513 8.05641 0.47074 7.60187C0.208368 7.46229 0 7.21165 0 6.91446V1.27401Z"/>
</mask>
<path d="M0.47074 7.60187L0.0253563 8.43905L0.47074 7.60187ZM54.5329 13.0607L54.0843 13.8961L54.5329 13.0607ZM54.5329 7.60581L54.9815 8.44127L54.5329 7.60581ZM54.3529 -0.321323H0.647062V1.57523H54.3529V-0.321323ZM55.9483 6.92018V1.27401H54.0517V6.92018H55.9483ZM54.0357 10.3332C54.0357 9.39432 54.4933 8.70337 54.9815 8.44127L54.0843 6.77035C52.8715 7.42156 52.1392 8.82923 52.1392 10.3332H54.0357ZM54.9815 12.2252C54.4933 11.9631 54.0357 11.2722 54.0357 10.3332H52.1392C52.1392 11.8373 52.8715 13.2449 54.0843 13.8961L54.9815 12.2252ZM55.9483 19.3917V13.7463H54.0517V19.3917H55.9483ZM0.647059 20.987H54.3529V19.0904H0.647059V20.987ZM-0.948276 13.752V19.3917H0.948276V13.752H-0.948276ZM0.975228 10.3332C0.975228 11.2751 0.514927 11.967 0.0253563 12.2274L0.916123 13.9018C2.13533 13.2532 2.87178 11.8413 2.87178 10.3332H0.975228ZM0.0253563 8.43905C0.514927 8.6995 0.975228 9.39137 0.975228 10.3332H2.87178C2.87178 8.82515 2.13533 7.41333 0.916123 6.7647L0.0253563 8.43905ZM-0.948276 1.27401V6.91446H0.948276V1.27401H-0.948276ZM0.916123 6.7647C0.895914 6.75395 0.894848 6.74703 0.905097 6.76119C0.918242 6.77935 0.948276 6.8331 0.948276 6.91446H-0.948276C-0.948276 7.67943 -0.427112 8.19833 0.0253563 8.43905L0.916123 6.7647ZM0.948276 13.752C0.948276 13.8334 0.918242 13.8871 0.905096 13.9053C0.894847 13.9195 0.895914 13.9125 0.916123 13.9018L0.0253563 12.2274C-0.427112 12.4682 -0.948276 12.9871 -0.948276 13.752H0.948276ZM0.647059 19.0904C0.813417 19.0904 0.948276 19.2253 0.948276 19.3917H-0.948276C-0.948276 20.2727 -0.23402 20.987 0.647059 20.987V19.0904ZM54.0843 13.8961C54.1041 13.9068 54.105 13.9135 54.0946 13.8992C54.0815 13.8809 54.0517 13.8273 54.0517 13.7463H55.9483C55.9483 12.985 55.4317 12.467 54.9815 12.2252L54.0843 13.8961ZM54.0517 6.92018C54.0517 6.83923 54.0815 6.78561 54.0946 6.76732C54.105 6.75299 54.1041 6.75968 54.0843 6.77035L54.9815 8.44127C55.4317 8.19953 55.9483 7.68152 55.9483 6.92018H54.0517ZM0.647062 -0.321323C-0.234011 -0.321323 -0.948276 0.392927 -0.948276 1.27401H0.948276C0.948276 1.44038 0.813414 1.57523 0.647062 1.57523V-0.321323ZM54.0517 19.3917C54.0517 19.2253 54.1866 19.0904 54.3529 19.0904V20.987C55.234 20.987 55.9483 20.2727 55.9483 19.3917H54.0517ZM54.3529 1.57523C54.1866 1.57523 54.0517 1.44037 54.0517 1.27401H55.9483C55.9483 0.392932 55.234 -0.321323 54.3529 -0.321323V1.57523Z" fill="#48AFFF" mask="url(#path-1-inside-1_7644_14924)"/>
<path d="M13.6452 7.74902L11.4468 14.2158H9.95175L7.75781 7.74902H9.14229L10.3587 11.5973C10.3793 11.6621 10.4132 11.7845 10.4604 11.9644C10.5076 12.1413 10.5548 12.33 10.602 12.5306C10.6521 12.7281 10.686 12.8918 10.7037 13.0215C10.7214 12.8918 10.7524 12.7281 10.7966 12.5306C10.8438 12.333 10.8895 12.1457 10.9337 11.9688C10.9809 11.7889 11.0148 11.6651 11.0354 11.5973L12.2607 7.74902H13.6452ZM18.5873 11.7344C18.5873 12.1472 18.5313 12.5129 18.4192 12.8313C18.3101 13.1498 18.1494 13.4196 17.9371 13.6408C17.7277 13.859 17.4741 14.0241 17.1763 14.1362C16.8814 14.2483 16.5482 14.3043 16.1767 14.3043C15.8287 14.3043 15.5087 14.2483 15.2168 14.1362C14.9278 14.0241 14.6757 13.859 14.4604 13.6408C14.2481 13.4196 14.083 13.1498 13.965 12.8313C13.85 12.5129 13.7925 12.1472 13.7925 11.7344C13.7925 11.1859 13.8898 10.7215 14.0845 10.3411C14.2791 9.96065 14.5563 9.67166 14.916 9.47409C15.2758 9.27652 15.7048 9.17773 16.2032 9.17773C16.6662 9.17773 17.0761 9.27652 17.4329 9.47409C17.7926 9.67166 18.0742 9.96065 18.2777 10.3411C18.4841 10.7215 18.5873 11.1859 18.5873 11.7344ZM15.1682 11.7344C15.1682 12.0587 15.2035 12.3315 15.2743 12.5527C15.3451 12.7738 15.4557 12.9404 15.6061 13.0525C15.7564 13.1646 15.9525 13.2206 16.1944 13.2206C16.4332 13.2206 16.6264 13.1646 16.7738 13.0525C16.9242 12.9404 17.0333 12.7738 17.1011 12.5527C17.1719 12.3315 17.2073 12.0587 17.2073 11.7344C17.2073 11.4071 17.1719 11.1358 17.1011 10.9205C17.0333 10.7023 16.9242 10.5386 16.7738 10.4295C16.6234 10.3204 16.4273 10.2659 16.1855 10.2659C15.8287 10.2659 15.5692 10.3882 15.407 10.633C15.2478 10.8777 15.1682 11.2449 15.1682 11.7344ZM23.9762 9.27062V14.2158H22.9412L22.7599 13.5833H22.6891C22.5829 13.7514 22.4502 13.8885 22.291 13.9947C22.1318 14.1008 21.9563 14.179 21.7646 14.2291C21.5729 14.2792 21.3739 14.3043 21.1675 14.3043C20.8136 14.3043 20.5055 14.2424 20.243 14.1185C19.9806 13.9917 19.7756 13.7956 19.6282 13.5302C19.4837 13.2648 19.4115 12.9198 19.4115 12.4952V9.27062H20.7605V12.159C20.7605 12.5129 20.8239 12.7797 20.9507 12.9596C21.0775 13.1395 21.2795 13.2294 21.5567 13.2294C21.831 13.2294 22.0462 13.1675 22.2025 13.0437C22.3588 12.9169 22.4679 12.7326 22.5298 12.4908C22.5947 12.246 22.6272 11.9482 22.6272 11.5973V9.27062H23.9762ZM27.1358 14.3043C26.6463 14.3043 26.2291 14.2158 25.8841 14.0389C25.5391 13.859 25.2766 13.5818 25.0967 13.2073C24.9168 12.8328 24.8269 12.3536 24.8269 11.7698C24.8269 11.1652 24.9286 10.6728 25.1321 10.2924C25.3385 9.90905 25.6231 9.62743 25.9858 9.44755C26.3515 9.26767 26.7746 9.17773 27.2553 9.17773C27.5973 9.17773 27.8922 9.21165 28.1399 9.27947C28.3906 9.34434 28.6088 9.42249 28.7946 9.5139L28.3965 10.5578C28.1842 10.4723 27.9866 10.403 27.8038 10.3499C27.6209 10.2939 27.4381 10.2659 27.2553 10.2659C27.0194 10.2659 26.8233 10.3219 26.667 10.4339C26.5107 10.543 26.3942 10.7082 26.3175 10.9293C26.2409 11.1505 26.2025 11.4277 26.2025 11.7609C26.2025 12.0882 26.2438 12.3595 26.3264 12.5748C26.409 12.7901 26.5284 12.9508 26.6847 13.0569C26.841 13.1601 27.0312 13.2117 27.2553 13.2117C27.5354 13.2117 27.7846 13.1749 28.0028 13.1012C28.221 13.0245 28.4333 12.9183 28.6398 12.7827V13.9372C28.4333 14.0669 28.2166 14.1598 27.9895 14.2158C27.7654 14.2748 27.4809 14.3043 27.1358 14.3043ZM30.8749 7.33324V8.73541C30.8749 8.98016 30.866 9.21312 30.8484 9.43428C30.8336 9.65545 30.8218 9.81173 30.813 9.90315H30.8837C30.9899 9.73212 31.1152 9.59352 31.2597 9.48736C31.4072 9.3812 31.5693 9.30306 31.7463 9.25293C31.9232 9.2028 32.1134 9.17773 32.3169 9.17773C32.6737 9.17773 32.9848 9.24113 33.2502 9.36793C33.5156 9.49179 33.722 9.68788 33.8694 9.95623C34.0169 10.2216 34.0906 10.5666 34.0906 10.9913V14.2158H32.7415V11.3274C32.7415 10.9736 32.6766 10.7067 32.5469 10.5268C32.4171 10.3469 32.2166 10.257 31.9453 10.257C31.674 10.257 31.4602 10.3204 31.3039 10.4472C31.1477 10.5711 31.0371 10.7554 30.9722 11.0001C30.9073 11.2419 30.8749 11.5383 30.8749 11.8892V14.2158H29.5258V7.33324H30.8749ZM37.2546 9.17773C37.7117 9.17773 38.1054 9.2662 38.4356 9.44313C38.7659 9.61711 39.021 9.87071 39.2008 10.2039C39.3807 10.5371 39.4707 10.9441 39.4707 11.4247V12.0794H36.2815C36.2962 12.4598 36.4098 12.7591 36.6221 12.9773C36.8374 13.1926 37.1352 13.3002 37.5156 13.3002C37.8311 13.3002 38.1201 13.2678 38.3825 13.2029C38.645 13.138 38.9148 13.0407 39.192 12.911V13.9548C38.9472 14.0758 38.6907 14.1642 38.4224 14.2202C38.157 14.2763 37.8341 14.3043 37.4537 14.3043C36.9583 14.3043 36.5189 14.2129 36.1355 14.03C35.7551 13.8472 35.4558 13.5686 35.2376 13.194C35.0223 12.8195 34.9147 12.3477 34.9147 11.7786C34.9147 11.2006 35.012 10.72 35.2067 10.3366C35.4042 9.95033 35.6785 9.66134 36.0294 9.46967C36.3803 9.27505 36.7887 9.17773 37.2546 9.17773ZM37.2635 10.1376C37.001 10.1376 36.7828 10.2216 36.6088 10.3897C36.4378 10.5578 36.339 10.8217 36.3125 11.1815H38.2056C38.2027 10.9809 38.1658 10.8025 38.095 10.6463C38.0272 10.49 37.924 10.3661 37.7854 10.2747C37.6498 10.1833 37.4758 10.1376 37.2635 10.1376ZM43.0637 9.17773C43.1316 9.17773 43.2097 9.18216 43.2982 9.191C43.3896 9.1969 43.4633 9.20575 43.5193 9.21754L43.4176 10.4826C43.3734 10.4679 43.31 10.4575 43.2274 10.4516C43.1478 10.4428 43.0785 10.4384 43.0195 10.4384C42.8455 10.4384 42.676 10.4605 42.5108 10.5047C42.3487 10.5489 42.2027 10.6212 42.0729 10.7215C41.9432 10.8188 41.84 10.9485 41.7633 11.1107C41.6896 11.2699 41.6527 11.466 41.6527 11.699V14.2158H40.3036V9.27062H41.3254L41.5245 10.1022H41.5908C41.6881 9.93411 41.809 9.78077 41.9535 9.64218C42.1009 9.50063 42.2676 9.38858 42.4533 9.30601C42.6421 9.22049 42.8455 9.17773 43.0637 9.17773ZM47.6034 12.7473C47.6034 13.0835 47.5238 13.368 47.3645 13.601C47.2083 13.831 46.9738 14.0065 46.6612 14.1274C46.3487 14.2453 45.9594 14.3043 45.4935 14.3043C45.1485 14.3043 44.8521 14.2822 44.6044 14.2379C44.3597 14.1937 44.112 14.12 43.8613 14.0168V12.9021C44.1297 13.023 44.4172 13.1233 44.7239 13.2029C45.0335 13.2796 45.3048 13.3179 45.5377 13.3179C45.8002 13.3179 45.9874 13.2796 46.0995 13.2029C46.2145 13.1233 46.272 13.0201 46.272 12.8933C46.272 12.8107 46.2484 12.737 46.2012 12.6721C46.157 12.6043 46.0597 12.5291 45.9093 12.4465C45.7589 12.361 45.523 12.2504 45.2016 12.1148C44.8919 11.985 44.6369 11.8538 44.4363 11.7211C44.2388 11.5884 44.0913 11.4321 43.994 11.2522C43.8997 11.0694 43.8525 10.8379 43.8525 10.5578C43.8525 10.1007 44.0294 9.75718 44.3833 9.52717C44.7401 9.29421 45.2163 9.17773 45.812 9.17773C46.1187 9.17773 46.4106 9.2087 46.6878 9.27062C46.9679 9.33255 47.2554 9.43133 47.5503 9.56698L47.1434 10.5401C46.8986 10.4339 46.6671 10.3469 46.4489 10.2791C46.2337 10.2113 46.014 10.1774 45.7899 10.1774C45.5923 10.1774 45.4434 10.2039 45.3431 10.257C45.2429 10.3101 45.1927 10.3912 45.1927 10.5003C45.1927 10.5799 45.2178 10.6507 45.2679 10.7126C45.321 10.7745 45.4213 10.8438 45.5687 10.9205C45.7191 10.9942 45.9388 11.0901 46.2278 11.208C46.5079 11.323 46.7512 11.4439 46.9576 11.5707C47.164 11.6946 47.3233 11.8494 47.4353 12.0352C47.5474 12.218 47.6034 12.4554 47.6034 12.7473Z" fill="#48AFFF"/>
</svg>
